<?xml version="1.0" encoding="UTF-8"?><svg width="24px" stroke-width="1.5" height="24px" viewBox="0 0 24 24" fill="none" xmlns="http://www.w3.org/2000/svg" color="#000000"><path d="M10 17h-.667a2 2 0 01-2-2v-1.889C7.333 12.556 6 12 6 12s1.333-.556 1.333-1.111V9a2 2 0 012-2H10M14 17h.667a2 2 0 002-2v-1.889C16.667 12.556 18 12 18 12s-1.333-.556-1.333-1.111V9a2 2 0 00-2-2H14" stroke="#000000" stroke-width="1.5" stroke-linecap="round" stroke-linejoin="round"></path><path d="M21 3.6v16.8a.6.6 0 01-.6.6H3.6a.6.6 0 01-.6-.6V3.6a.6.6 0 01.6-.6h16.8a.6.6 0 01.6.6z" stroke="#000000" stroke-width="1.5" stroke-linecap="round" stroke-linejoin="round"></path></svg>