<svg xmlns="http://www.w3.org/2000/svg" width="768" height="205.45282726568553" viewBox="0 0 1159.8828125 310.28802490234375" version="1.1">
<g transform="translate(-50,-474.8800048828125)"><path d="M 75 600.009 L 75 701.041 95.750 700.770 L 116.500 700.500 116.761 660.275 L 117.023 620.049 133.261 619.775 L 149.500 619.500 149.773 601.750 L 150.046 584 133.523 584 L 117 584 117 560.500 L 117 537 138.500 537 C 155.058 537, 159.989 536.713, 159.954 535.750 C 159.928 535.063, 158.434 526.625, 156.633 517 L 153.359 499.500 114.179 499.238 L 75 498.977 75 600.009 M 189.499 501.250 C 188.273 506.369, 154 697.454, 154 699.171 C 154 700.945, 155.039 701.028, 174.246 700.771 L 194.492 700.500 196.360 688.250 L 198.228 676 211.553 676 L 224.877 676 225.570 680.750 C 225.950 683.362, 226.766 688.875, 227.383 693 L 228.505 700.500 248.753 700.771 C 268.445 701.034, 269 700.986, 269 699.035 C 269 696.971, 234.321 503.888, 233.386 500.750 C 232.911 499.154, 230.980 499, 211.452 499 C 190.071 499, 190.037 499.003, 189.499 501.250 M 294 500.022 C 284.626 501.660, 279.699 505.012, 275.658 512.500 C 273.562 516.385, 273.491 517.686, 273.198 557.837 C 272.867 603.243, 273.152 605.972, 278.777 611.216 C 283.887 615.981, 285.599 616.357, 304.323 616.815 C 322.120 617.251, 322.146 617.255, 323.073 619.691 C 324.290 622.894, 324.247 659.061, 323.023 661 C 322.235 662.248, 318.198 662.551, 299.038 662.802 C 286.367 662.969, 276.004 663.419, 276.009 663.802 C 276.013 664.186, 277.588 672.544, 279.509 682.376 C 281.429 692.208, 283 700.465, 283 700.725 C 283 700.985, 296.387 700.998, 312.750 700.754 C 346.891 700.244, 350.859 699.553, 357.083 693.025 C 363.267 686.539, 363.500 684.522, 363.500 637.500 L 363.500 595.500 361.086 591.286 C 357.155 584.424, 354.343 583.579, 333.500 583 C 323.600 582.725, 314.938 582.136, 314.250 581.691 C 313.315 581.086, 313 575.591, 313 559.916 L 313 538.950 315.565 537.975 C 316.976 537.439, 328.262 537, 340.645 537 L 363.159 537 362.606 534.250 C 362.302 532.737, 360.905 525.200, 359.501 517.500 C 358.097 509.800, 356.727 502.488, 356.455 501.250 L 355.962 499 327.231 499.118 C 311.429 499.182, 296.475 499.589, 294 500.022 M 380.961 503.250 C 380.347 505.587, 378.079 513.652, 375.922 521.172 C 373.765 528.692, 372 535.329, 372 535.922 C 372 536.637, 376.372 537, 384.994 537 L 397.988 537 398.244 618.750 L 398.500 700.500 419.250 700.770 L 440 701.041 440 619.049 L 440 537.056 453.331 536.778 L 466.663 536.500 461.672 517.750 L 456.682 499 419.379 499 L 382.077 499 380.961 503.250 M 532.203 500.115 C 522.402 501.747, 516.292 506.763, 513.572 515.412 C 512.120 520.027, 511.952 525.788, 512.208 562.088 L 512.500 603.500 515 607.916 C 519.145 615.239, 522.555 616.377, 541.482 616.761 C 550.292 616.939, 558.513 617.300, 559.750 617.562 C 561.999 618.038, 562 618.052, 562 639.484 C 562 659.663, 561.886 660.991, 560.066 661.965 C 558.904 662.587, 549.519 663, 536.566 663 C 519.976 663, 515.002 663.288, 515.008 664.250 C 515.015 665.481, 520.443 694.275, 521.530 698.848 L 522.088 701.197 551.794 700.753 C 585.206 700.255, 589.368 699.565, 595.404 693.529 C 602.229 686.704, 602.500 684.565, 602.500 637.500 C 602.500 591.900, 602.573 592.546, 596.845 587.389 C 592.790 583.737, 588.458 583, 571.051 583 C 559.434 583, 554.037 582.637, 553.200 581.800 C 552.344 580.944, 552 574.652, 552 559.835 C 552 540.329, 552.117 539.008, 553.934 538.035 C 555.107 537.407, 564.953 537, 578.953 537 L 602.038 537 601.511 534.750 C 600.840 531.881, 595 500.329, 595 499.569 C 595 498.652, 538.017 499.148, 532.203 500.115 M 619.099 505.738 C 618.002 509.457, 615.560 518.013, 613.670 524.750 L 610.235 537 623.618 537 L 637 537 637 619.020 L 637 701.041 657.750 700.770 L 678.500 700.500 678.756 618.750 L 679.012 537 692.006 537 C 703.742 537, 704.993 536.831, 704.928 535.250 C 704.889 534.288, 702.751 525.850, 700.178 516.500 L 695.500 499.500 658.296 499.238 L 621.092 498.976 619.099 505.738 M 712.006 500.730 C 712.009 501.703, 720.559 535.775, 731.006 576.444 L 750 650.387 750 675.714 L 750 701.040 771.250 700.770 L 792.500 700.500 793.004 673 L 793.509 645.500 812.254 573.211 C 822.565 533.452, 831 500.490, 831 499.961 C 831 499.377, 822.797 499, 810.083 499 L 789.166 499 788.193 503.750 C 787.658 506.363, 783.703 526.821, 779.406 549.212 C 775.108 571.604, 771.346 589.685, 771.046 589.391 C 770.746 589.098, 766.663 568.753, 761.974 544.179 L 753.447 499.500 732.724 499.230 C 713.459 498.978, 712 499.084, 712.006 500.730 M 842 599.980 L 842 701 879.429 701 L 916.858 701 917.896 695.750 C 918.467 692.862, 919.878 685.325, 921.031 679 C 922.185 672.675, 923.374 666.487, 923.673 665.250 L 924.217 663 904.114 663 L 884.012 663 883.756 581.250 L 883.500 499.500 862.750 499.230 L 842 498.959 842 599.980 M 936 599.988 L 936 701 974.031 701 C 1005.380 701, 1012.155 700.758, 1012.590 699.625 C 1012.881 698.869, 1014.598 690.319, 1016.408 680.625 L 1019.697 663 998.849 663 L 978 663 978 641.525 L 978 620.050 994.250 619.775 L 1010.500 619.500 1010.773 601.750 L 1011.046 584 994.523 584 L 978 584 978 560.500 L 978 537 999.500 537 C 1016.055 537, 1020.991 536.712, 1020.960 535.750 C 1020.938 535.063, 1019.450 526.625, 1017.654 517 L 1014.389 499.500 975.194 499.238 L 936 498.977 936 599.988 M 1054.622 500.046 C 1046.844 501.361, 1041.037 505.576, 1037.515 512.463 L 1034.500 518.359 1034.500 559.929 L 1034.500 601.500 1037 606.448 C 1041.594 615.540, 1045.512 616.843, 1068.550 616.940 C 1078.072 616.981, 1082.987 617.387, 1083.800 618.200 C 1085.546 619.946, 1085.499 660.559, 1083.750 661.691 C 1083.063 662.136, 1072.336 662.725, 1059.914 663 L 1037.328 663.500 1040.676 681 C 1042.518 690.625, 1044.248 699.111, 1044.522 699.858 C 1044.932 700.975, 1050.309 701.135, 1074.760 700.762 C 1107.753 700.258, 1111.998 699.564, 1118.010 693.686 C 1124.529 687.312, 1124.449 687.948, 1124.775 640 L 1125.070 596.500 1122.785 592.023 C 1118.866 584.345, 1116.485 583.579, 1094.711 583 C 1079.484 582.595, 1075.743 582.216, 1074.976 581 C 1073.742 579.043, 1073.743 540.955, 1074.978 539 C 1075.767 537.749, 1079.911 537.450, 1099.962 537.199 C 1123.998 536.899, 1124 536.899, 1123.916 534.699 C 1123.870 533.490, 1122.408 525.075, 1120.666 516 L 1117.500 499.500 1088.500 499.360 C 1072.550 499.283, 1057.305 499.592, 1054.622 500.046 M 207.640 605.776 C 205.580 621.574, 203.634 636.413, 203.316 638.750 L 202.737 643 211.368 643 C 218.646 643, 220 642.747, 220 641.386 C 220 639.091, 212.012 577.679, 211.669 577.336 C 211.513 577.180, 209.700 589.978, 207.640 605.776" stroke="none" fill="#FEEFCA" fill-rule="evenodd"/><path d="M 70 599.564 L 70 704.129 77.883 712.064 L 85.765 720 110.883 720 L 136 720 136 679.500 L 136 639 148 639 C 154.600 639, 159.988 639.337, 159.974 639.750 C 159.960 640.163, 157.345 654.900, 154.164 672.500 L 148.380 704.500 156.090 712.268 L 163.800 720.035 188.630 719.768 L 213.460 719.500 214.706 710.500 C 216.924 694.471, 216.746 695, 219.938 695 C 222.997 695, 224 696.446, 224 700.854 C 224 702.894, 225.998 705.532, 232.271 711.772 L 240.542 720 265.350 720 L 290.159 720 289.447 716.750 L 288.735 713.500 291.590 716.750 L 294.445 720 324.673 720 C 343.224 720, 356.949 719.566, 360.201 718.877 C 370.469 716.700, 376.115 712.358, 380.196 703.500 C 382.471 698.563, 382.504 697.958, 382.805 655.500 C 383.030 623.827, 382.788 611.344, 381.886 608.111 C 380.955 604.772, 378.509 601.470, 371.654 594.300 C 359.004 581.067, 356.222 579.609, 342.750 579.147 L 332 578.779 332 567.889 L 332 557 363 557 L 394 557 394 630.773 L 394 704.547 401.772 712.273 L 409.544 720 434.272 720 L 459 720 459 638.500 L 459 557 473 557 C 484.999 557, 487 556.778, 487 555.445 C 487 554.589, 484.470 544.352, 481.379 532.695 L 475.757 511.500 467.640 503.239 L 459.522 494.978 419.101 495.239 L 378.679 495.500 376.708 502.845 L 374.736 510.190 367.036 502.535 L 359.335 494.880 324.418 495.190 C 291.248 495.484, 289.275 495.606, 285 497.624 C 279.271 500.328, 274.744 504.854, 271.810 510.810 C 269.532 515.435, 269.493 516.093, 269 558.469 L 268.500 601.439 260.329 556.071 L 252.157 510.703 244.352 502.851 L 236.547 495 211.377 495 L 186.208 495 184.633 503.750 C 183.766 508.563, 182.070 518.125, 180.864 525 C 179.657 531.875, 178.363 537.858, 177.988 538.296 C 177.614 538.734, 176.241 532.884, 174.939 525.296 L 172.570 511.500 164.608 503.250 L 156.645 495 113.323 495 L 70 495 70 599.564 M 526.431 496.818 C 520.209 498.969, 516.344 501.908, 512.759 507.216 C 507.953 514.331, 507.715 516.362, 507.259 554.169 C 506.807 591.545, 507.614 604.827, 510.631 609.725 C 511.571 611.251, 516.651 616.897, 521.920 622.271 C 533.393 633.972, 537.547 636, 550.038 636 L 558 636 558 647 L 558 658 534.059 658 C 520.891 658, 509.936 658.337, 509.713 658.750 C 509.490 659.163, 511.262 669.613, 513.649 681.973 L 517.991 704.447 525.722 712.223 L 533.453 720 563.977 719.984 C 597.251 719.967, 602.915 719.307, 609.995 714.622 C 615.310 711.104, 618.594 705.880, 620.444 698 C 622.768 688.105, 622.711 614.442, 620.375 607.587 C 619.135 603.949, 616.460 600.500, 609.097 593.049 C 596.589 580.392, 595.214 579.695, 581.750 579.185 L 571 578.779 571 567.889 L 571 557 602 557 L 633 557 633 630.773 L 633 704.547 640.772 712.273 L 648.544 720 673.272 720 L 698 720 698 638.500 L 698 557 709.750 557.007 L 721.500 557.015 733.280 603.257 L 745.061 649.500 745.030 676.814 L 745 704.129 752.883 712.064 L 760.765 720 786.383 720 L 812 720 811.986 692.750 L 811.971 665.500 824.236 617.666 L 836.500 569.832 836.757 636.987 L 837.014 704.143 844.890 712.071 L 852.765 720 894.269 720 L 935.773 720 936.448 715.500 C 936.819 713.025, 937.328 711, 937.578 711 C 937.829 711, 939.974 713.025, 942.345 715.500 L 946.657 720 988.860 720 C 1021.745 720, 1031.150 719.724, 1031.458 718.750 C 1031.675 718.063, 1033.105 710.750, 1034.635 702.500 L 1037.417 687.500 1038.966 695.734 L 1040.516 703.969 1048.508 712.039 L 1056.500 720.109 1089.500 719.749 C 1126.488 719.344, 1128.604 719, 1135.549 712.256 C 1144.216 703.838, 1145.298 696.173, 1144.703 647.408 C 1144.456 627.108, 1143.909 609.150, 1143.489 607.500 C 1142.998 605.573, 1138.570 600.361, 1131.112 592.932 C 1117.867 579.736, 1116.362 579, 1102.634 579 L 1094 579 1094 568 L 1094 557 1118.941 557 C 1132.659 557, 1144.079 556.663, 1144.320 556.250 C 1144.561 555.837, 1142.891 545.490, 1140.611 533.255 L 1136.464 511.011 1128.505 503.005 L 1120.547 495 1088.089 495 C 1050.185 495, 1046.539 495.557, 1039.478 502.429 C 1037.178 504.668, 1034.803 507.400, 1034.200 508.500 C 1033.182 510.357, 1032.542 509.944, 1025.280 502.750 L 1017.456 495 974.228 495 L 931 495 931 577.500 C 931 631.833, 930.659 660, 930 660 C 929.450 660, 929 659.550, 929 659 C 929 658.385, 924 658, 916 658 L 903 658 903 584.436 L 903 510.871 895.117 502.936 L 887.235 495 836.231 495 L 785.227 495 784.589 499.250 C 784.238 501.587, 782.460 511.150, 780.637 520.500 L 777.324 537.500 774.976 524.500 L 772.629 511.500 764.637 503.250 L 756.645 495 731.323 495 C 703.769 495, 705.180 494.655, 706.988 500.957 L 707.975 504.400 703.192 499.689 L 698.408 494.977 657.990 495.238 L 617.573 495.500 615.617 502.500 C 614.542 506.350, 613.555 509.646, 613.424 509.824 C 613.292 510.002, 609.832 506.740, 605.733 502.574 L 598.281 495 564.890 495.033 C 535.723 495.061, 530.859 495.287, 526.431 496.818 M 75 600 L 75 700 95.500 700 L 116 700 116 659.500 L 116 619 132.500 619 L 149 619 149 602 L 149 585 132.500 585 L 116 585 116 561.019 L 116 537.038 137.819 536.769 L 159.639 536.500 156.860 521.500 C 155.331 513.250, 153.817 505.038, 153.495 503.250 L 152.909 500 113.955 500 L 75 500 75 600 M 189.595 502.750 C 189.285 504.262, 181.374 548.025, 172.016 600 C 162.658 651.975, 154.740 695.737, 154.421 697.250 L 153.841 700 173.901 700 C 196.990 700, 194.123 701.622, 196 687.500 C 197.870 673.431, 195.982 674.902, 211.757 675.222 L 225.462 675.500 226.707 684.500 C 227.391 689.450, 228.208 694.962, 228.521 696.750 L 229.091 700 249.154 700 L 269.217 700 268.671 697.750 C 268.371 696.513, 260.413 652.750, 250.987 600.500 C 241.562 548.250, 233.602 504.262, 233.300 502.750 L 232.750 500 211.454 500 L 190.159 500 189.595 502.750 M 289.718 501.437 C 283.229 503.752, 279.074 507.241, 276.433 512.593 L 273.919 517.686 274.209 561.093 C 274.498 604.225, 274.514 604.523, 276.768 608.147 C 281.061 615.051, 282.368 615.442, 303 616 C 313.175 616.275, 322.063 616.864, 322.750 617.309 C 324.500 618.442, 324.547 660.053, 322.800 661.800 C 321.937 662.663, 315.241 663, 298.983 663 L 276.366 663 279.895 681.563 L 283.425 700.126 314.462 699.784 C 341.855 699.482, 345.970 699.228, 349.500 697.625 C 354.660 695.282, 357.673 692.469, 360.347 687.500 C 362.443 683.606, 362.507 682.349, 362.780 640 L 363.060 596.500 360.780 592.058 C 356.979 584.653, 353.879 583.673, 332.242 583.038 C 317.463 582.604, 313.740 582.210, 312.977 581 C 311.673 578.934, 311.726 541.381, 313.035 538.934 C 314.014 537.105, 315.365 537, 338.035 537 C 359.142 537, 362 536.813, 362 535.431 C 362 534.567, 360.650 526.650, 359 517.837 C 357.350 509.024, 356 501.406, 356 500.907 C 356 499.354, 294.171 499.848, 289.718 501.437 M 377.489 517.250 C 374.845 526.737, 372.481 535.063, 372.234 535.750 C 371.890 536.711, 374.935 537, 385.393 537 L 399 537 399 618.500 L 399 700 419.500 700 L 440 700 440 618.500 L 440 537 453.117 537 C 465.118 537, 466.194 536.851, 465.771 535.250 C 465.517 534.288, 463.327 525.964, 460.904 516.753 L 456.500 500.007 419.397 500.003 L 382.295 500 377.489 517.250 M 527.755 501.706 C 522.285 503.530, 516.744 508.492, 514.239 513.809 C 512.674 517.130, 512.500 521.660, 512.500 559 C 512.500 605.865, 512.705 607.383, 519.758 612.767 C 523.300 615.471, 523.539 615.505, 542.206 616 C 557.503 616.405, 561.254 616.784, 562.022 618 C 563.327 620.067, 563.276 658.615, 561.965 661.066 C 560.987 662.892, 559.645 663, 537.897 663 C 516.434 663, 514.900 663.119, 515.376 664.750 C 515.657 665.712, 517.318 674.071, 519.068 683.324 L 522.250 700.149 553.375 699.781 C 579.799 699.469, 585.048 699.161, 588.129 697.744 C 593.932 695.074, 597.721 691.294, 599.678 686.222 C 601.340 681.914, 601.500 677.688, 601.500 638 C 601.500 594.538, 601.498 594.497, 599.234 590.856 C 595.325 584.571, 591.952 583.638, 571.500 583.187 C 561.416 582.965, 552.950 582.343, 552.250 581.773 C 550.656 580.475, 550.462 541.873, 552.035 538.934 C 553.015 537.104, 554.367 537, 577.160 537 L 601.250 537 600.733 534.250 C 600.449 532.737, 598.935 524.413, 597.369 515.750 L 594.521 500 563.511 500.062 C 538.015 500.112, 531.656 500.405, 527.755 501.706 M 620.611 501.738 C 618.899 507.418, 611 535.907, 611 536.404 C 611 536.732, 617.075 537, 624.500 537 L 638 537 638 618.500 L 638 700 658 700 L 678 700 678 618.500 L 678 537 691.519 537 L 705.038 537 704.472 534.750 C 704.161 533.513, 701.973 525.300, 699.610 516.500 L 695.313 500.500 658.228 500.238 C 623.548 499.993, 621.108 500.090, 620.611 501.738 M 712.382 501.750 C 712.666 502.712, 721.246 536.030, 731.449 575.789 L 750 648.078 750 674.039 L 750 700 771 700 L 792 700 792 675.450 L 792 650.901 811.035 576.700 C 821.504 535.890, 830.265 501.938, 830.503 501.250 C 830.841 500.276, 826.346 500, 810.157 500 L 789.377 500 780.438 546.443 C 775.522 571.987, 771.222 592.574, 770.882 592.193 C 770.543 591.812, 766.797 573.050, 762.559 550.500 C 758.320 527.950, 754.398 507.363, 753.843 504.750 L 752.834 500 732.350 500 C 713.311 500, 711.902 500.123, 712.382 501.750 M 842 600 L 842 700 879.332 700 L 916.663 700 919.836 682.750 C 921.581 673.263, 923.007 664.938, 923.005 664.250 C 923.001 663.292, 918.331 663, 903 663 L 883 663 883 581.500 L 883 500 862.500 500 L 842 500 842 600 M 936 600.012 L 936 700.024 974.248 699.762 L 1012.496 699.500 1015.690 682.500 C 1017.447 673.150, 1018.910 664.938, 1018.942 664.250 C 1018.987 663.288, 1014.164 663, 998 663 L 977 663 977 641 L 977 619 993.500 619 L 1010 619 1010 602 L 1010 585 993.500 585 L 977 585 977 561.019 L 977 537.038 998.829 536.769 L 1020.658 536.500 1017.881 521.500 C 1016.354 513.250, 1014.835 505.038, 1014.507 503.250 L 1013.909 500 974.955 500 L 936 500 936 600.012 M 1052.500 500.935 C 1045.638 502.606, 1040.894 506.387, 1037.367 513 C 1035.646 516.227, 1035.477 519.728, 1035.208 557.865 C 1034.879 604.385, 1035.099 606.246, 1041.600 611.953 C 1043.508 613.629, 1045.166 615.065, 1045.285 615.144 C 1045.403 615.223, 1053.915 615.560, 1064.201 615.894 C 1077.505 616.325, 1083.277 616.875, 1084.201 617.798 C 1085.871 619.465, 1086.633 656.206, 1085.082 660.284 L 1084.050 663 1061.025 663 C 1048.361 663, 1038.003 663.337, 1038.008 663.750 C 1038.017 664.624, 1043.708 694.392, 1044.521 697.815 L 1045.071 700.130 1075.860 699.815 L 1106.648 699.500 1112.553 696.479 C 1117.695 693.847, 1118.847 692.695, 1121.479 687.552 L 1124.500 681.647 1124.825 643.074 C 1125.183 600.559, 1124.885 595.608, 1121.681 590.855 C 1117.328 584.395, 1114.653 583.639, 1094.559 583.183 C 1084.568 582.956, 1075.942 582.323, 1075.250 581.764 C 1073.504 580.354, 1073.457 539.943, 1075.200 538.200 C 1076.066 537.334, 1083.046 537, 1100.308 537 L 1124.217 537 1123.664 534.750 C 1123.359 533.513, 1121.934 525.975, 1120.497 518 C 1119.060 510.025, 1117.655 502.712, 1117.375 501.750 C 1116.903 500.130, 1114.595 500.008, 1086.183 500.102 C 1069.307 500.159, 1054.150 500.533, 1052.500 500.935 M 136 568.500 L 136 580 144.726 580 L 153.453 580 160.687 587.185 C 165.614 592.079, 168.070 593.913, 168.389 592.935 C 168.647 592.146, 170.046 584.750, 171.498 576.500 C 172.951 568.250, 174.382 560.487, 174.678 559.250 L 175.217 557 155.608 557 L 136 557 136 568.500 M 997 568.500 L 997 580 1005.728 580 L 1014.456 580 1022.228 587.727 L 1030 595.453 1030 576.227 L 1030 557 1013.500 557 L 997 557 997 568.500 M 206.822 608.263 C 204.327 627.093, 202.472 642.837, 202.702 643.250 C 203.079 643.931, 221 644.385, 221 643.714 C 221 641.921, 212.013 574.680, 211.737 574.403 C 211.529 574.196, 209.318 589.433, 206.822 608.263 M 1030.033 619.750 L 1030 639 1013.500 639 L 997 639 997 648.500 L 997 658 1010.517 658 L 1024.034 658 1028.639 662.750 L 1033.244 667.500 1032.561 662.750 L 1031.877 658 1056.439 658 L 1081 658 1081 647 L 1081 636 1073.443 636 C 1059.900 636, 1057.948 635.072, 1045.178 622.567 C 1035.546 613.136, 1033.572 610.660, 1031.960 605.990 L 1030.065 600.500 1030.033 619.750 M 269.070 603.500 C 269.061 604.050, 271.208 616.425, 273.841 631 L 278.629 657.500 298.815 657.771 L 319 658.041 319 647.021 L 319 636 311.682 636 C 299.345 636, 295.115 634.142, 284.785 624.184 C 274.753 614.512, 272.266 611.393, 270.380 606.115 C 269.669 604.127, 269.080 602.950, 269.070 603.500" stroke="none" fill="#2A3560" fill-rule="evenodd"/><path d="M 172.326 513 C 172.601 514.375, 173.854 521.224, 175.109 528.221 C 176.365 535.217, 177.587 540.746, 177.825 540.508 C 178.063 540.270, 179.054 535.701, 180.026 530.355 L 181.794 520.636 176.810 515.568 C 172.525 511.211, 171.895 510.851, 172.326 513 M 252.283 513 C 252.572 514.375, 258.569 547.563, 265.611 586.750 L 278.414 658 284.815 658 C 290.946 658, 291.194 657.905, 290.681 655.750 C 290.387 654.513, 288.964 647.010, 287.521 639.077 L 284.896 624.655 279.428 618.749 C 269.106 607.600, 269.579 609.937, 268.954 567 C 268.600 542.691, 268.014 528.621, 267.290 527 C 266.675 525.625, 262.929 521.350, 258.965 517.500 C 253.101 511.806, 251.855 510.966, 252.283 513 M 772 511.124 C 772 511.898, 775.889 531.731, 776.681 535 C 777.131 536.858, 777.767 535.193, 779.153 528.523 L 781.019 519.546 776.510 515.036 C 774.029 512.556, 772 510.795, 772 511.124 M 903 584.419 L 903 658 910.500 658 L 918 658 918 591.919 L 918 525.839 910.500 518.339 L 903 510.839 903 584.419 M 476 512.829 C 476 513.551, 478.475 523.363, 481.500 534.634 C 484.525 545.905, 487 555.548, 487 556.063 C 487 556.601, 481.037 557, 473 557 L 459 557 459 638.500 L 459 720 434.275 720 L 409.550 720 417 727.500 L 424.450 735 449.225 735 L 474 735 474 653.500 L 474 572 488 572 C 498.444 572, 502 571.686, 502 570.765 C 502 570.085, 499.469 559.848, 496.376 548.015 L 490.752 526.500 483.376 519.008 C 479.319 514.888, 476 512.107, 476 512.829 M 1140.116 532.250 C 1142.204 543.388, 1143.933 553.513, 1143.956 554.750 L 1144 557 1118.500 557 L 1093 557 1093 568 L 1093 579 1101 579 L 1109 579 1109 575.500 L 1109 572 1134.607 572 C 1154.671 572, 1160.115 571.729, 1159.755 570.750 C 1159.502 570.063, 1157.570 559.825, 1155.460 548 L 1151.625 526.500 1144.643 519.250 C 1140.804 515.263, 1137.360 512, 1136.990 512 C 1136.621 512, 1138.027 521.112, 1140.116 532.250 M 136 568.500 L 136 580 143.500 580 L 151 580 151 576.034 L 151 572.068 161.711 571.784 L 172.422 571.500 173.667 565.500 C 174.352 562.200, 174.932 558.938, 174.956 558.250 C 174.990 557.291, 170.457 557, 155.500 557 L 136 557 136 568.500 M 332 568 L 332 579 339.500 579 L 347 579 347 575.500 L 347 572 370.500 572 L 394 572 394 564.500 L 394 557 363 557 L 332 557 332 568 M 571 568 L 571 579 578.500 579 L 586 579 586 575.500 L 586 572 609.500 572 L 633 572 633 564.500 L 633 557 602 557 L 571 557 571 568 M 698 638.500 L 698 720 673.275 720 L 648.550 720 656 727.500 L 663.450 735 688.225 735 L 713 735 713 653.500 L 713 572 719 572 C 722.504 572, 725 571.565, 725 570.956 C 725 570.381, 724.270 567.006, 723.378 563.456 L 721.757 557 709.878 557 L 698 557 698 638.500 M 997 568.500 L 997 580 1004.500 580 L 1012 580 1012 576 L 1012 572 1021 572 L 1030 572 1030 564.500 L 1030 557 1013.500 557 L 997 557 997 568.500 M 824.200 617.289 L 811.899 665.500 811.950 692.750 L 812 720 787 720 C 773.250 720, 762 720.272, 762 720.603 C 762 720.935, 765.103 724.310, 768.897 728.103 L 775.793 735 801.397 735 L 827 735 827 707.890 L 827 680.780 832.013 661.047 L 837.025 641.315 836.763 605.196 L 836.500 569.078 824.200 617.289 M 1030.107 618.750 L 1030 639 1013.500 639 L 997 639 997 648.500 L 997 658 1004.500 658 C 1011.333 658, 1012 657.822, 1012 656 C 1012 654.081, 1012.667 654, 1028.500 654 L 1045 654 1045 638.203 L 1045 622.406 1040.894 618.453 C 1035.473 613.233, 1032.402 608.313, 1031.199 602.915 C 1030.430 599.470, 1030.191 602.949, 1030.107 618.750 M 380.268 605 C 382.473 609.445, 382.500 610.024, 382.500 652.500 C 382.500 691.469, 382.329 696.007, 380.676 700.913 C 378.177 708.332, 374.733 712.497, 368.650 715.456 C 361.112 719.123, 352.598 719.958, 322.548 719.980 L 295.595 720 292.179 716.750 L 288.762 713.500 289.208 716.750 L 289.654 720 265.102 720 L 240.550 720 248 727.500 L 255.450 735 280.200 735 L 304.950 735 304.301 731.750 L 303.652 728.500 306.699 731.834 L 309.746 735.168 342.623 734.793 C 372.895 734.448, 375.883 734.257, 380.335 732.391 C 387.411 729.425, 391.508 725.728, 394.316 719.776 C 397.947 712.079, 398.392 708.392, 395.979 705.979 C 394.067 704.067, 394 702.514, 394 660.367 L 394 616.734 386.018 608.617 C 378.176 600.641, 378.076 600.578, 380.268 605 M 618.526 603.500 C 621.879 612.890, 622 614.539, 622 650.717 C 622 696.969, 621.048 703.648, 613.351 711.395 C 606.253 718.538, 597.623 719.954, 561.025 719.980 L 533.550 720 541.025 727.556 L 548.500 735.111 581 734.728 C 616.089 734.315, 617.661 734.103, 625.626 728.723 C 631.173 724.977, 634.784 718.621, 635.684 711.021 C 636.163 706.975, 635.967 705.925, 634.637 705.414 C 633.155 704.846, 633 700.615, 633 660.873 L 633 616.960 625.406 609.230 C 621.230 604.979, 618.134 602.400, 618.526 603.500 M 1142.005 606.254 C 1144.040 610.879, 1144.089 612.207, 1143.799 654.754 C 1143.504 697.972, 1143.472 698.560, 1141.201 703.488 C 1138.273 709.839, 1135.668 712.603, 1129.785 715.598 C 1122.795 719.156, 1114.421 719.958, 1084.025 719.980 L 1056.550 720 1064.025 727.556 L 1071.500 735.111 1104 734.776 C 1134.821 734.458, 1136.787 734.326, 1142.062 732.219 C 1148.667 729.580, 1153.616 725.059, 1156.165 719.333 C 1159.451 711.953, 1160.149 701.079, 1159.818 662.476 C 1159.444 619.038, 1159.914 621.090, 1147.571 609 L 1139.913 601.500 1142.005 606.254 M 298.500 637.993 C 306.133 645.793, 311.839 649.653, 316.500 650.168 L 319.500 650.500 319.791 643.398 L 320.082 636.295 310.027 635.741 C 302.466 635.325, 298.921 634.648, 295.736 633.013 C 291.538 630.858, 291.562 630.903, 298.500 637.993 M 538.053 638.603 C 545.382 646.032, 549.824 649.073, 555.250 650.377 L 558 651.038 558 643.666 L 558 636.294 548.444 635.724 C 541.739 635.324, 537.652 634.542, 534.747 633.105 C 530.744 631.124, 530.855 631.309, 538.053 638.603 M 1061.961 639.443 C 1069.244 646.792, 1072.651 649.083, 1078.250 650.394 L 1081 651.038 1081 643.655 L 1081 636.273 1071.750 635.773 C 1066.445 635.486, 1060.794 634.557, 1058.500 633.593 C 1054.579 631.947, 1054.647 632.062, 1061.961 639.443 M 136 679.500 L 136 720 111.500 720 C 98.025 720, 87 720.272, 87 720.603 C 87 720.935, 90.103 724.310, 93.897 728.103 L 100.793 735 125.897 735 L 151 735 151 720.700 C 151 711.227, 150.610 706.010, 149.846 705.246 C 148.974 704.374, 148.974 702.384, 149.846 697.103 C 150.481 693.260, 151 681.989, 151 672.057 L 151 654 154.327 654 C 157.625 654, 157.664 653.945, 158.827 647.635 C 159.472 644.134, 160 640.759, 160 640.135 C 160 639.351, 156.283 639, 148 639 L 136 639 136 679.500 M 1034.602 701.500 C 1033.080 709.750, 1031.616 717.288, 1031.349 718.250 C 1030.898 719.881, 1028.027 720, 989.141 720 L 947.416 720 943 715.500 C 940.571 713.025, 938.254 711, 937.851 711 C 937.448 711, 936.740 712.913, 936.277 715.250 L 935.437 719.500 894.719 719.761 C 872.323 719.905, 854 720.289, 854 720.615 C 854 720.940, 857.103 724.310, 860.897 728.103 L 867.793 735 909.283 735 L 950.773 735 951.448 730.500 C 951.819 728.025, 952.328 726, 952.578 726 C 952.829 726, 954.979 728.030, 957.356 730.511 L 961.678 735.022 1004.073 734.761 L 1046.469 734.500 1048.351 724.152 L 1050.233 713.805 1045.626 709.128 C 1041.362 704.799, 1040.882 703.780, 1039.195 695.475 L 1037.371 686.500 1034.602 701.500 M 216.544 696.250 C 216.327 696.938, 215.651 701.325, 215.041 706 C 214.431 710.675, 213.686 715.737, 213.386 717.250 L 212.841 720 188.921 720 C 175.764 720, 165 720.272, 165 720.603 C 165 720.935, 168.111 724.318, 171.914 728.121 L 178.828 735.035 203.650 734.768 L 228.471 734.500 230.122 723 L 231.774 711.500 228.275 707.843 C 225.627 705.076, 224.649 703.067, 224.258 699.593 C 223.755 695.137, 223.638 695, 220.339 695 C 218.468 695, 216.760 695.563, 216.544 696.250" stroke="none" fill="#53AFA8" fill-rule="evenodd"/><path d="M 267.100 527.691 C 267.155 528.686, 267.560 530.625, 268 532 C 268.719 534.246, 268.811 534.124, 268.900 530.809 C 268.955 528.779, 268.550 526.840, 268 526.500 C 267.450 526.160, 267.045 526.696, 267.100 527.691 M 918 591.896 L 918 658 923.393 658 C 927.264 658, 928.948 658.423, 929.362 659.500 C 931.651 665.466, 932 657.657, 932 600.466 L 932 539.931 925 532.861 L 918 525.792 918 591.896 M 491 527.771 C 491 528.443, 493.475 538.322, 496.500 549.725 C 499.525 561.128, 502 570.805, 502 571.229 C 502 571.653, 495.700 572, 488 572 L 474 572 474 653.500 L 474 735 449.275 735 L 424.550 735 432 742.500 L 439.450 750 464.225 750 L 489 750 489 668.500 L 489 587 498.500 587 L 508 587 508 569.667 C 508 560.134, 507.498 549.833, 506.884 546.777 C 505.880 541.780, 505.023 540.480, 498.384 533.885 C 494.323 529.851, 491 527.099, 491 527.771 M 1155.154 547.750 C 1157.255 559.163, 1158.980 569.288, 1158.987 570.250 C 1158.999 571.871, 1157.124 572, 1133.500 572 L 1108 572 1108 575.311 C 1108 578.443, 1108.268 578.690, 1112.965 579.894 C 1115.696 580.594, 1119.742 582.479, 1121.957 584.084 L 1125.983 587 1150.559 587 C 1173.487 587, 1175.102 586.883, 1174.639 585.250 C 1174.367 584.288, 1172.463 574.050, 1170.408 562.500 L 1166.672 541.500 1159.611 534.250 C 1155.728 530.263, 1152.276 527, 1151.942 527 C 1151.608 527, 1153.053 536.337, 1155.154 547.750 M 151 576 C 151 578.200, 151.448 580, 151.995 580 C 152.542 580, 155.623 582.700, 158.842 586 C 162.061 589.300, 164.988 592, 165.347 592 C 165.706 592, 166 590.875, 166 589.500 C 166 587.712, 166.540 587, 167.897 587 C 169.445 587, 169.998 585.832, 170.897 580.668 C 171.504 577.186, 172 573.811, 172 573.168 C 172 572.351, 168.841 572, 161.500 572 L 151 572 151 576 M 347 575.381 C 347 578.530, 347.295 578.837, 351.294 579.844 C 353.655 580.438, 357.593 582.284, 360.044 583.944 C 364.499 586.963, 364.504 586.964, 379.250 586.982 L 394 587 394 579.500 L 394 572 370.500 572 L 347 572 347 575.381 M 586 575.421 C 586 578.469, 586.353 578.917, 589.250 579.543 C 593.380 580.434, 599.247 583.387, 600.939 585.427 C 602.023 586.733, 604.856 587, 617.622 587 L 633 587 633 579.500 L 633 572 609.500 572 L 586 572 586 575.421 M 713 653.500 L 713 735 688.275 735 L 663.550 735 671 742.500 L 678.450 750 703.208 750 L 727.966 750 728.233 667.250 C 728.450 600.078, 728.242 583.323, 727.128 578.250 L 725.757 572 719.378 572 L 713 572 713 653.500 M 1012 576 C 1012 578.200, 1012.448 580, 1012.995 580 C 1013.542 580, 1016.623 582.700, 1019.842 586 C 1023.061 589.300, 1025.988 592, 1026.347 592 C 1026.706 592, 1027 590.875, 1027 589.500 C 1027 587.944, 1027.567 587, 1028.500 587 C 1029.700 587, 1030 585.500, 1030 579.500 L 1030 572 1021 572 L 1012 572 1012 576 M 1157.005 621.254 C 1159.040 625.879, 1159.089 627.207, 1158.799 669.754 C 1158.504 712.972, 1158.472 713.560, 1156.201 718.488 C 1153.291 724.800, 1150.668 727.603, 1144.941 730.519 C 1138.111 733.996, 1127.641 735, 1098.203 735 L 1071.550 735 1079.025 742.556 L 1086.500 750.111 1119 749.776 C 1149.821 749.458, 1151.787 749.326, 1157.062 747.219 C 1163.667 744.580, 1168.616 740.059, 1171.165 734.333 C 1174.437 726.983, 1175.135 716.103, 1174.811 677.500 C 1174.446 634.034, 1174.916 636.092, 1162.571 624 L 1154.913 616.500 1157.005 621.254 M 1045 638.275 L 1045 654 1028.500 654 C 1012.667 654, 1012 654.081, 1012 656 C 1012 657.770, 1012.667 658, 1017.792 658 C 1023.335 658, 1023.773 658.193, 1028 662.500 C 1030.429 664.975, 1032.781 667, 1033.227 667 C 1033.959 667, 1033.674 664.670, 1032.340 659.750 C 1031.904 658.144, 1033.021 658, 1045.933 658 L 1060 658 1060 647.725 L 1060 637.450 1052.500 630 L 1045 622.550 1045 638.275 M 285.048 626.025 C 285.075 626.836, 286.335 634.250, 287.848 642.500 L 290.599 657.500 296.800 657.798 C 300.210 657.961, 303.001 657.736, 303.002 657.298 C 303.003 656.859, 302.294 652.630, 301.426 647.899 L 299.847 639.298 292.423 631.924 C 288.341 627.868, 285.022 625.214, 285.048 626.025 M 831.750 661.231 L 827 679.963 827 707.481 L 827 735 802 735 C 788.250 735, 777 735.272, 777 735.603 C 777 735.935, 780.103 739.310, 783.897 743.103 L 790.793 750 816.397 750 L 842 750 842 729.365 L 842 708.729 839.515 706.426 L 837.029 704.122 836.765 673.311 L 836.500 642.500 831.750 661.231 M 312.469 651.824 C 315.751 655.221, 318.816 658, 319.279 658 C 319.742 658, 319.981 656.330, 319.810 654.289 C 319.526 650.884, 319.190 650.514, 315.733 649.801 C 313.662 649.374, 310.737 648.264, 309.233 647.336 C 307.657 646.362, 309.027 648.262, 312.469 651.824 M 551.493 651.993 C 554.762 655.297, 557.564 658, 557.719 658 C 557.873 658, 558 656.200, 558 654 C 558 650.499, 557.715 650, 555.711 650 C 554.453 650, 551.651 649.097, 549.485 647.993 C 545.581 646.002, 545.598 646.035, 551.493 651.993 M 1074.966 652.453 C 1077.972 655.504, 1080.560 658, 1080.716 658 C 1080.872 658, 1081 656.200, 1081 654 C 1081 650.646, 1080.672 650, 1078.968 650 C 1077.850 650, 1075.263 649.304, 1073.218 648.453 L 1069.500 646.907 1074.966 652.453 M 151.117 671.250 L 151.233 688.500 152.620 681.500 C 153.382 677.650, 154.843 669.888, 155.867 664.250 L 157.727 654 154.364 654 L 151 654 151.117 671.250 M 151 720.775 L 151 735 126.500 735 C 113.025 735, 102 735.272, 102 735.603 C 102 735.935, 105.103 739.310, 108.897 743.103 L 115.793 750 140.897 750 L 166 750 166 735.725 L 166 721.450 158.500 714 L 151 706.550 151 720.775 M 397 709.965 C 397 713.285, 393.909 721.253, 391.288 724.689 C 387.973 729.036, 380.075 732.736, 371.500 733.961 C 367.650 734.511, 352.371 734.969, 337.548 734.980 L 310.595 735 307.298 731.804 L 304 728.608 304 731.804 L 304 735 280 735 C 266.800 735, 256 735.210, 256 735.466 C 256 735.722, 259.197 739.097, 263.104 742.966 L 270.208 750 295.079 750 L 319.950 750 319.301 746.750 L 318.652 743.500 321.690 746.824 L 324.727 750.147 357.614 749.796 C 388.010 749.471, 390.866 749.290, 395.335 747.404 C 402.423 744.414, 406.512 740.721, 409.316 734.776 C 414.089 724.658, 413.949 723.925, 405.623 715.462 C 401.585 711.358, 397.993 708, 397.640 708 C 397.288 708, 397 708.884, 397 709.965 M 635.468 712.250 C 634.021 720.942, 628.773 727.853, 621.112 731.156 C 614.035 734.206, 605.162 734.959, 576.025 734.980 L 548.550 735 556.025 742.556 L 563.500 750.111 596 749.728 C 631.087 749.315, 632.654 749.104, 640.635 743.723 C 645.796 740.244, 649.252 734.654, 650.887 727.146 L 651.834 722.792 644.557 715.396 C 640.555 711.328, 637.032 708, 636.728 708 C 636.424 708, 635.857 709.913, 635.468 712.250 M 230.107 720.688 C 229.417 726.085, 228.612 731.513, 228.318 732.750 L 227.783 735 203.892 735 C 190.751 735, 180 735.272, 180 735.603 C 180 735.935, 183.111 739.318, 186.914 743.121 L 193.828 750.035 218.650 749.768 L 243.471 749.500 245.133 738 L 246.795 726.500 239.079 718.688 L 231.362 710.877 230.107 720.688 M 1049.603 716.072 C 1049.315 717.407, 1048.593 721.200, 1048 724.500 C 1047.407 727.800, 1046.705 731.513, 1046.442 732.750 L 1045.962 735 1004.189 735 L 962.416 735 958 730.500 C 955.571 728.025, 953.254 726, 952.851 726 C 952.448 726, 951.740 727.913, 951.277 730.250 L 950.437 734.500 909.719 734.761 C 887.323 734.905, 869 735.289, 869 735.615 C 869 735.940, 872.103 739.310, 875.897 743.103 L 882.793 750 924.283 750 L 965.773 750 966.448 745.500 C 966.819 743.025, 967.328 741, 967.578 741 C 967.829 741, 969.979 743.030, 972.356 745.511 L 976.678 750.022 1019.073 749.761 L 1061.469 749.500 1063.355 739.129 L 1065.241 728.757 1057.684 721.201 C 1050.591 714.107, 1050.095 713.793, 1049.603 716.072" stroke="none" fill="#F8AF60" fill-rule="evenodd"/><path d="M 506.015 543.691 C 506.024 544.686, 506.467 546.175, 507 547 C 507.758 548.173, 507.973 547.914, 507.985 545.809 C 507.993 544.329, 507.550 542.840, 507 542.500 C 506.450 542.160, 506.007 542.696, 506.015 543.691 M 1170.154 562.750 C 1172.255 574.163, 1173.980 584.288, 1173.987 585.250 C 1173.999 586.869, 1172.185 587, 1149.775 587 L 1125.550 587 1133 594.500 L 1140.450 602 1165.292 602 C 1188.474 602, 1190.102 601.883, 1189.639 600.250 C 1189.367 599.288, 1187.445 589.050, 1185.369 577.500 L 1181.594 556.500 1174.628 549.250 C 1170.797 545.263, 1167.363 542, 1166.998 542 C 1166.633 542, 1168.053 551.337, 1170.154 562.750 M 166.190 590.750 C 166.575 595.412, 168.299 595.289, 169.093 590.543 C 169.598 587.519, 169.406 587, 167.782 587 C 166.195 587, 165.931 587.622, 166.190 590.750 M 372 594.500 L 379.450 602 386.725 602 L 394 602 394 594.500 L 394 587 379.275 587 L 364.550 587 372 594.500 M 489 668.500 L 489 750 464.275 750 L 439.550 750 447 757.500 L 454.450 765 479.225 765 L 504 765 504 683.500 C 504 602.667, 504.016 602, 506 602 C 507.822 602, 508 601.333, 508 594.500 L 508 587 498.500 587 L 489 587 489 668.500 M 610 594.500 L 617.450 602 625.225 602 L 633 602 633 594.500 L 633 587 617.775 587 L 602.550 587 610 594.500 M 728 668.500 L 728 750 703.275 750 L 678.550 750 686 757.500 L 693.450 765 718.225 765 L 743 765 743.041 702.750 L 743.081 640.500 736.291 613.752 C 732.556 599.041, 729.163 587.003, 728.750 587.002 C 728.337 587.001, 728 623.675, 728 668.500 M 1027.190 590.673 C 1027.635 595.948, 1030 596.294, 1030 591.083 C 1030 588.050, 1029.599 587, 1028.440 587 C 1027.253 587, 1026.954 587.879, 1027.190 590.673 M 1172.005 636.254 C 1174.040 640.879, 1174.089 642.207, 1173.799 684.754 C 1173.504 727.972, 1173.472 728.560, 1171.201 733.488 C 1168.298 739.787, 1165.667 742.605, 1160 745.486 C 1152.983 749.054, 1143.303 750, 1113.833 750 L 1086.550 750 1094.025 757.556 L 1101.500 765.111 1134 764.776 C 1164.821 764.458, 1166.787 764.326, 1172.062 762.219 C 1178.667 759.580, 1183.616 755.059, 1186.165 749.333 C 1189.437 741.983, 1190.135 731.103, 1189.811 692.500 C 1189.446 649.034, 1189.916 651.092, 1177.571 639 L 1169.913 631.500 1172.005 636.254 M 1060 647.775 L 1060 658 1067.500 658 L 1075 658 1075 655.225 C 1075 653.100, 1073.242 650.703, 1067.500 645 L 1060 637.550 1060 647.775 M 300.424 643.500 C 300.781 645.700, 301.539 649.862, 302.108 652.750 L 303.142 658 309.071 658 C 317.176 658, 316.922 656.338, 307.387 646.975 L 299.774 639.500 300.424 643.500 M 842 729.419 L 842 750 817 750 C 803.250 750, 792 750.272, 792 750.603 C 792 750.935, 795.103 754.310, 798.897 758.103 L 805.793 765 831.397 765 L 857 765 857 744.419 L 857 723.839 849.500 716.339 L 842 708.839 842 729.419 M 166 735.775 L 166 750 141.500 750 C 128.025 750, 117 750.272, 117 750.603 C 117 750.935, 120.103 754.310, 123.897 758.103 L 130.793 765 155.897 765 L 181 765 181 750.725 L 181 736.450 173.500 729 L 166 721.550 166 735.775 M 412 724.965 C 412 728.285, 408.909 736.253, 406.288 739.689 C 402.973 744.036, 395.075 747.736, 386.500 748.961 C 382.650 749.511, 367.371 749.969, 352.548 749.980 L 325.595 750 322.179 746.750 L 318.762 743.500 319.208 746.750 L 319.654 750 295.102 750 L 270.550 750 278 757.500 L 285.450 765 310.200 765 L 334.950 765 334.301 761.750 L 333.652 758.500 336.699 761.834 L 339.746 765.168 372.623 764.793 C 402.895 764.448, 405.883 764.257, 410.335 762.391 C 417.411 759.425, 421.508 755.728, 424.316 749.776 C 429.089 739.658, 428.949 738.925, 420.623 730.462 C 416.585 726.358, 412.993 723, 412.640 723 C 412.288 723, 412 723.884, 412 724.965 M 650.468 727.250 C 649.021 735.942, 643.773 742.853, 636.112 746.156 C 629.035 749.206, 620.162 749.959, 591.025 749.980 L 563.550 750 571.025 757.556 L 578.500 765.111 611 764.728 C 646.089 764.315, 647.661 764.103, 655.626 758.723 C 660.734 755.273, 664.155 749.717, 665.869 742.085 L 666.834 737.792 659.557 730.396 C 655.555 726.328, 652.032 723, 651.728 723 C 651.424 723, 650.857 724.913, 650.468 727.250 M 245.107 735.688 C 244.417 741.085, 243.612 746.513, 243.318 747.750 L 242.783 750 218.892 750 C 205.751 750, 195 750.272, 195 750.603 C 195 750.935, 198.111 754.318, 201.914 758.121 L 208.828 765.035 233.650 764.768 L 258.471 764.500 260.133 753 L 261.795 741.500 254.079 733.688 L 246.362 725.877 245.107 735.688 M 1065 729.151 C 1065 729.736, 1062.555 742.509, 1061.441 747.750 L 1060.962 750 1019.189 750 L 977.416 750 973 745.500 C 970.571 743.025, 968.254 741, 967.851 741 C 967.448 741, 966.740 742.913, 966.277 745.250 L 965.437 749.500 924.719 749.761 C 902.323 749.905, 884 750.289, 884 750.615 C 884 750.940, 887.103 754.310, 890.897 758.103 L 897.793 765 939.283 765 L 980.773 765 981.448 760.500 C 981.819 758.025, 982.328 756, 982.578 756 C 982.829 756, 984.979 758.030, 987.356 760.511 L 991.678 765.022 1034.073 764.761 L 1076.469 764.500 1078.355 754.129 L 1080.241 743.757 1072.621 736.137 C 1068.429 731.945, 1065 728.802, 1065 729.151" stroke="none" fill="#DD615B" fill-rule="evenodd"/></g></svg>